<?xml version="1.0" encoding="UTF-8" standalone="no"?>
<!DOCTYPE svg PUBLIC "-//W3C//DTD SVG 1.1//EN" "http://www.w3.org/Graphics/SVG/1.1/DTD/svg11.dtd">
<!-- Created with Vectornator (http://vectornator.io/) -->
<svg height="100%" stroke-miterlimit="10" style="fill-rule:nonzero;clip-rule:evenodd;stroke-linecap:round;stroke-linejoin:round;" version="1.1" viewBox="0 0 300 300" width="100%" xml:space="preserve" xmlns="http://www.w3.org/2000/svg" xmlns:vectornator="http://vectornator.io" xmlns:xlink="http://www.w3.org/1999/xlink">
<defs>
<path d="M89.9777 40L89.9777 89.9777L40 89.9777L40 140.445C40.198 206.392 93.6087 259.802 159.555 260L210.022 260L210.022 211.002C210.624 238.314 232.684 259.889 260 260L260 159.555C259.802 93.6269 206.373 40.2239 140.445 40L89.9777 40ZM90.4677 90.4677L209.532 90.4677L209.532 210.022L90.4677 210.022L90.4677 90.4677Z" id="Fill"/>
<linearGradient gradientTransform="matrix(2.6861 0 0 15.6729 40 40)" gradientUnits="userSpaceOnUse" id="LinearGradient" x1="0" x2="81.903" y1="7.0185" y2="7.0185">
<stop offset="0.192843" stop-color="#0f55d4"/>
<stop offset="0.713635" stop-color="#8900d7"/>
</linearGradient>
</defs>
<g id="Layer-1" vectornator:layerName="Layer 1">
<use fill="#000000" fill-rule="nonzero" opacity="1" stroke="none" vectornator:layerName="Curve 1" xlink:href="#Fill"/>
<clipPath clip-rule="nonzero" id="ClipPath">
<use xlink:href="#Fill"/>
</clipPath>
<g clip-path="url(#ClipPath)">
<path d="M40 40L260 40L260 260L40 260L40 40Z" fill="url(#LinearGradient)" fill-rule="nonzero" opacity="1" stroke="none" vectornator:layerName="path"/>
</g>
</g>
</svg>
